<svg width="16" height="16" fill="currentColor" viewBox="0 0 107.72 107.72" xml:space="preserve" xmlns="http://www.w3.org/2000/svg">
	<path d="m53.856 107.72c27.127 0 49.659-20.043 53.568-46.099-3.909 26.056-26.442 46.099-53.568 46.099z"/>
	<path d="m53.856 107.11c29.53 0 53.556-24.024 53.556-53.556 1e-3 -29.531-24.026-53.556-53.556-53.556s-53.556 24.025-53.556 53.556c0 29.532 24.027 53.556 53.556 53.556zm32.529-84.491c0.394 0.318 0.438 0.539-0.123 0.664-0.088-0.084-0.174-0.168-0.262-0.251-0.14-0.162-0.31-0.195-0.515-0.162-0.258 0.042-0.346-0.108-0.317-0.337 0.026-0.248 0.188-0.317 0.408-0.246 0.277 0.09 0.568 0.135 0.809 0.332zm-5.69-0.19c-0.086 0.105-0.236 0.146-0.34 0.079-0.572-0.379-1.375-0.342-1.789-0.999l-2e-3 -1e-3c-0.605-0.123-1.068-0.562-1.644-0.754-0.039-3e-3 -0.078-5e-3 -0.117-8e-3 -0.254-0.115-0.471-0.3-0.741-0.391-0.129-0.042-0.271-0.211-0.183-0.331 0.511-0.668-0.149-0.769-0.478-1.035-0.041-1e-3 -0.08-4e-3 -0.121-8e-3 -0.067-0.167-0.131-0.334 3e-3 -0.501-3e-3 -0.041-7e-3 -0.082-7e-3 -0.122h-2e-3c-0.51 0.204-0.576-0.357-0.879-0.509-0.574-0.506-1.133-1.011-1.057-1.894 0.02-0.226 0.014-0.421 0.24-0.525 0.221-0.101 0.195-0.289 0.215-0.479 0.08-0.856 0.605-1.498 1.287-1.851 0.375-0.195 0.912 0.245 1.258 0.612 0.129 0.135 0.213 0.311 0.318 0.468 0.135-0.054 0.268-0.117 0.408-0.159 0.25-0.076 0.396-0.189 0.162-0.432-0.105-0.109-0.238-0.208-0.146-0.369 0.103-0.169 0.293-0.142 0.457-0.122 0.121 0.014 0.248 0.055 0.353 0.117 0.385 0.227 0.709 0.541 1.227 0.523 0.189-6e-3 0.539 0.128 0.484 0.572-0.047 0.369 0.594 0.341 0.619 0.751l2e-3 1e-3c0.44-0.042 0.709 0.244 0.983 0.518 0.137 0.103 0.299 0.188 0.448 0.212 0.355 0.058 0.558 0.235 0.699 0.56 0.111 0.249 0.289 0.445 0.601 0.541 0.437 0.133 0.573 0.544 0.471 0.938-0.104 0.401-4e-3 0.676 0.244 0.968 0.613 0.72 0.541 2.103-0.155 2.732-0.244 0.219-0.386 0.556-0.73 0.665-0.064-0.012-0.129-4e-3 -0.193-8e-3 -0.248 0.202-0.592 0.021-0.875 0.084-0.016-0.013-0.031-0.018-0.047-0.03-0.311 0.042-0.621 0.07-0.934 7e-3 0.018 0.054 0.017 0.111-0.039 0.18zm-26.839-21.681c0.953 0 1.899 0.028 2.84 0.079 4.58 1.454 8.615 6.49 12.104 15.135 7e-3 0.018 0.013 0.037 0.021 0.055 0.152 0.099 0.231 0.228 0.195 0.354-0.017 0.058-4e-3 0.096-0.011 0.147 0.119 0.304 0.228 0.621 0.343 0.929 8e-3 0.019 0.022 0.035 0.028 0.055 0.043 0.145 0.171 0.281 0.147 0.427 0.287 0.777 0.582 1.548 0.847 2.347 0.196 0.059 0.396 0.105 0.608 0.104-0.063 0.108-0.106 0.237-0.194 0.319-0.072 0.067-0.152 0.13-0.226 0.196 0.112 0.354 0.217 0.718 0.328 1.077 0.146 0.085 0.311 0.144 0.504 0.161 0.25 0.021 0.51 0.01 0.748 0.076 0.422 0.118 0.865 0.253 1.008 0.748 0.189 0.649 0.621 0.844 1.248 0.706 0.41-0.134 0.799-0.181 1.179 0.128 0.182 0.149 0.442 0.113 0.672 0.066 0.735-0.153 1.346 0.063 1.769 0.673 0.284 0.412 0.562 0.433 0.926 0.145 0.639 0.017 1.244 0.14 1.754 0.561 0.229 0.188 0.506 0.178 0.774 0.189 0.24 0.297 0.591 0.291 0.916 0.312 0.359 0.023 0.646 0.149 0.847 0.451 0.83 0.324 1.656 0.654 2.49 0.97 0.108 0.042 0.219 0.083 0.319 0.136 0.049-0.13 0.094-0.261 0.123-0.399 0.065-0.308 0.233-0.554 0.596-0.508 0.359 0.046 0.515-0.098 0.615-0.435 0.094-0.306 0.354-0.43 0.69-0.412 0.31 0.016 0.486 0.126 0.588 0.429 0.058 0.164 0.193 0.314 0.382 0.535-0.537-0.671-0.726-1.406-1.027-2.078-0.205-0.46-0.762-0.494-0.887-0.969-0.123-0.467-0.048-1.015-0.459-1.374-0.44-0.384-0.214-0.803-0.106-1.219 0.028-0.117 0.151-0.13 0.256-0.151 0.02 3e-3 0.032 0.014 0.053 0.018 0.016-0.104-0.098-0.168-0.211-0.231v-0.655c0.646 0.533 1.256 0.965 1.772 1.486 0.394 0.394 0.894 0.622 1.291 0.992 0.354 0.327 0.134 0.398-0.174 0.451 4e-3 0.125 0.01 0.25 0.017 0.374-0.052 0.139-0.105 0.275-0.148 0.415-0.098 0.314-0.244 0.438-0.523 0.16-0.119-0.117-0.285-0.277-0.43-0.13-0.156 0.158 0.041 0.307 0.145 0.422 0.248 0.275 0.717 0.46 0.34 0.958-0.014 0.018 0.015 0.099 0.039 0.109 0.689 0.257 0.767 1.233 1.588 1.343 0.285 0.038 0.382 0.229 0.248 0.512-0.106 0.229-0.096 0.475 0.104 0.637 0.229 0.187 0.242-0.128 0.36-0.203 0.087-0.053 0.177-0.041 0.22 0.041 0.119 0.222 0.285 0.485 0.099 0.703-0.269 0.314-0.347 0.587-0.111 0.953 0.111 0.174 0.057 0.314-0.215 0.288-0.424-0.042-0.438 0.307-0.504 0.587-0.09 0.378 0.186 0.349 0.43 0.444 0.309 0.121 0.416 0.479 0.602 0.75 0.301 0.44 0.301 0.955 0.486 1.417 0.08 0.198 0.057 0.418-0.152 0.564-0.443 0.31-0.549 0.778-0.561 1.273-0.018 0.712-0.182 1.383 0.139 2.14 0.271 0.642 0.779 0.712 1.205 0.947 0.799 0.441 1.08 0.835 0.859 1.712-0.086 0.341-0.09 0.64 0.01 0.974 0.145 0.485 0.41 0.963 0.127 1.5-0.078 0.152 0.062 0.318 0.195 0.433 0.623 0.536 0.625 1.19 0.363 1.896-0.029 0.054-0.07 0.095-0.127 0.121-0.386-0.035-0.365-0.474-0.628-0.638-0.094 0.09-0.114 0.224-0.049 0.287 0.813 0.756 0.731 1.739 0.533 2.648-0.175 0.804-0.875 1.257-1.646 1.533-0.242-0.029-0.312-0.204-0.298-0.401 0.043-0.582-0.327-0.868-0.764-1.118-0.961-0.551-1.015-0.707-0.67-1.771 0.114-0.357 0.262-0.707 0.307-1.085 0.022-0.19 0.074-0.379 0.283-0.446 0.248-0.08 0.313 0.162 0.451 0.276-3e-3 -0.011 0.01-0.017-7e-3 -0.029-0.368-0.275-0.104-0.63-0.118-0.949-5e-3 -0.086-0.013-0.171-0.017-0.257 0.164-0.303 0.176-0.609-0.088-0.849-0.189-0.175-0.104-0.381-0.146-0.572-3e-3 -0.024-0.011-0.04-0.013-0.062-0.24-0.025-0.479-0.047-0.711-0.1-0.166-0.038-0.309-0.108-0.414-0.216-0.053 1e-3 -0.106 6e-3 -0.16 0.019-0.049 0.03-0.1 0.049-0.151 0.068-0.078-0.011-0.136 0.012-0.19 0.037-0.05 0.233-0.062 0.473-0.054 0.717-0.205-0.042-0.323-0.169-0.412-0.329-0.034 0.019-0.063 0.046-0.104 0.051-0.541-0.083-0.924 0-0.975 0.681-0.027 0.369-0.326 0.503-0.627 0.212-0.568-0.55-1.222-0.87-2.019-0.873-0.171 0-0.244-0.146-0.336-0.259-0.271-0.307-0.466-0.626-0.189-1.031 0.041-0.061 0.091-0.116 0.138-0.172-0.047-0.097-0.094-0.193-0.154-0.279-0.229-0.325-0.527-0.347-0.777-0.054-0.197 0.233-0.24 0.744-0.637 0.598-0.383-0.142-0.344-0.62-0.336-0.999 2e-3 -0.063 6e-3 -0.125 8e-3 -0.188 0.062-0.183 0.234-0.191 0.389-0.229-0.01-7e-3 -0.022-5e-3 -0.031-0.013-0.01-0.034-8e-3 -0.068-0.016-0.103-0.406 0.164-0.947 0.052-1.236-0.299 9e-3 -0.195-0.065-0.368-0.16-0.532-0.122-0.215-0.313-0.428-0.079-0.674 0.233-0.248 0.528-0.414 0.872-0.442 0.298-0.024 0.261 0.263 0.341 0.444 0.078-0.176 0.116-0.318 0.131-0.443-0.172-0.529-0.459-0.645-1.194-0.514-0.468-0.27-0.89-0.607-1.482-0.615-0.398-5e-3 -0.346-0.387-0.389-0.672-0.097-0.655-0.185-1.313-0.342-1.958-7e-3 0.207-0.019 0.413-0.054 0.617-0.035 0.192-0.021 0.398-0.302 0.479-0.268 0.077-0.381-0.052-0.514-0.214-0.031-0.09-0.057-0.183-0.094-0.266-0.236 0-0.475-2e-3 -0.713 5e-3 -0.123 4e-3 -0.326 0.011-0.354 0.075-0.187 0.44-0.392 0.521-0.756 0.159-0.154-0.153-0.244 0.077-0.314 0.188-0.217 0.343-0.426 0.524-0.736 0.079-0.123-0.176-0.348-0.226-0.559-0.262-0.041-3e-3 -0.082-5e-3 -0.123-5e-3 -0.359 0.34-0.773 0.487-1.266 0.376-0.654-0.089-0.588 0.377-0.359 0.636 0.445 0.51 0.031 1.214 0.482 1.685 0.01 0.011 6e-3 0.047-4e-3 0.061-0.761 1.025 0.309 1.776 0.397 2.673 0.121 0.044 0.241 0.089 0.362 0.134 0.388 0.225 0.627 0.543 0.66 1.007 8e-3 0.121 0.043 0.281 0.125 0.348 0.765 0.617 0.631 1.637 1.09 2.389 0.103 0.166 0.086 0.478 0.396 0.346 0.233-0.1 0.156-0.308 0.041-0.479-0.076-0.116-0.117-0.235 0.019-0.33 0.147-0.104 0.244 0.036 0.313 0.119 0.629 0.736 1.319 0.679 2.16 0.339 0.403-0.164 0.901-0.594 1.428-0.142 0.082 0.07 0.185-0.048 0.257-0.128 0.112-0.125 0.051-0.467 0.313-0.375 0.223 0.077 0.125 0.368 0.146 0.568v0.036c0.038 0 0.077 0 0.116-1e-3 0.317 0.109 0.681 0.084 0.963 0.299 0.025 0.035 0.031 0.076 0.039 0.117 0.037-0.021 0.074-0.039 0.113-0.057 0.135-0.133 0.34-0.162 0.5-0.256 0.185-0.019 0.401-0.048 0.407 0.217 7e-3 0.281 0.121 0.5 0.291 0.698 0.16 0.186 0.097 0.374-0.03 0.499-0.293 0.289-0.119 0.438 0.127 0.591 0.526 0.529 0.496 1.357 1.012 1.892 0.011 0.285 0.123 0.541 0.314 0.733 0.43 0.436 0.436 1.084 0.825 1.549 0.175 0.205-0.075 0.424-0.309 0.503-0.26 0.088-0.529 0.089-0.797-5e-3 -0.146-0.052-0.311-0.259-0.443-0.101-0.149 0.178 0.064 0.333 0.162 0.484h-4e-3c-0.26 0.197 0.023 0.573-0.252 0.765l-3e-3 -1e-3c-0.174 0.153-0.387 0.231-0.575 0.083-0.365-0.285-0.802-0.282-1.197-0.245-0.609 0.056-1.088-0.356-1.666-0.356-0.068 0-0.127-0.05-0.154-0.095-0.404-0.658-1.09-0.989-1.646-1.468-0.336-0.289-0.518-0.801-0.371-1.395 0.189-0.759 0.342-1.541 0.396-2.328-0.056-0.062-0.104-0.129-0.181-0.168-0.178-0.137-0.387-0.148-0.598-0.157-0.139-6e-3 -0.246-0.053-0.342-0.113-0.131-0.043-0.262-0.098-0.395-0.166-0.635-0.326-0.814-0.188-0.851 0.522-8e-3 0.146-8e-3 0.295-0.028 0.44-0.037 0.271-0.174 0.501-0.445 0.55-0.287 0.051-0.389-0.216-0.473-0.423-0.244-0.596-0.652-0.959-1.31-1.036-0.138-0.017-0.287-0.089-0.396-0.18-0.096-0.081-0.188-0.123-0.271-0.138 0.215 3.091 0.338 6.275 0.338 9.583 0 14.648-2.1 27.159-6.291 37.534-3.664 9.059-7.928 14.159-12.792 15.307-0.715 0.029-1.432 0.055-2.153 0.055-29.117 0-52.806-23.688-52.806-52.806 4e-3 -29.119 23.693-52.81 52.81-52.81z"/>

</svg>
