<svg width="16" height="16" fill="currentColor" viewBox="0 0 108 108" xml:space="preserve" xmlns="http://www.w3.org/2000/svg">
		<path d="m47.872 67.073c9e-3 -0.025 0.021-0.048 0.03-0.073-0.012 0.025-0.025 0.048-0.039 0.072 4e-3 0 6e-3 1e-3 9e-3 1e-3z"/>
		<path d="m46.898 74.486c-0.051-0.021-0.104-0.034-0.153-0.051-0.044 6e-3 -0.085 0.02-0.13 0.024-0.145 0.024-0.281 0.072-0.404 0.151 4e-3 0.041 0.014 0.08 0.016 0.123 6e-3 0.203 0.109 0.367 0.297 0.443 0.276 0.109 0.619 0.369 0.821-0.025 0.192-0.374-0.136-0.551-0.447-0.665z"/>
		<path d="m45.104 35.034c0.037-0.052 0.068-0.099 0.059-0.11-0.547-0.65 0.271-1.668-0.609-2.23-0.291-0.185-0.156-0.292 0.093-0.423 0.221-0.116 0.748-7e-3 0.63-0.31-0.158-0.404-0.104-0.976-0.58-1.207-0.382-0.184-0.795-0.634-1.184 0.103-0.115 0.217-0.689 0.101-0.873 0.487-0.059 0.575-0.422 0.974-0.767 1.382 0.012 0.02 0.026 0.032 0.037 0.054 0.091 0.302-0.043 0.582-0.107 0.86-0.075 0.329-0.325 0.471-0.669 0.428-0.675-0.083-0.949 0.227-0.78 0.896 0.044 0.179 0.163 0.345-1e-3 0.518 0.314 0.12 0.604 0.136 0.77-0.35 0.186-0.141 0.393-0.21 0.625-0.193 0.579 0.273 0.053 0.522-0.017 0.781-0.034 0.014-0.069 0.027-0.104 0.041-0.245 0.068-0.392 0.19-0.491 0.339 0.074 0.281 0.059 0.583 0.052 0.881 1e-3 -2e-3 1e-3 -3e-3 2e-3 -5e-3 0.11-0.535 0.532-0.813 1.062-0.742 0.41 0.055 0.658 0.498 0.604 1.058-0.034 0.346-2e-3 0.707-0.369 0.987 0.473 0.043 0.367-0.302 0.365-0.438-6e-3 -0.451 0.079-0.859 0.355-1.212 0.141-0.178 0.129-0.325 0.029-0.515-0.232-0.441-0.146-0.854 0.298-0.992 0.503-0.156 1.044-0.426 1.57-0.088z"/>
		<path d="m39.156 58.365c8e-3 4e-3 0.014 0.01 0.02 0.014 0.025 0.014 0.037 0.016 0.041-2e-3 2e-3 -3e-3 2e-3 -2e-3 4e-3 -5e-3 -0.011 0-0.021-1e-3 -0.042-0.013-7e-3 2e-3 -0.015 2e-3 -0.023 6e-3z"/>
		<path d="m32.516 57.284c-0.184-0.022-0.264-0.119-0.299-0.263-2e-3 0.363 0.062 0.746 0.57 0.879 0.146 0.037 0.135 0.271 0.148 0.295-0.037-0.145 0.064-0.508 0.217-0.787-0.214 0.099-0.426-0.097-0.636-0.124z"/>
		<path d="m33.152 57.408c0.064-0.029 0.13-0.084 0.195-0.182 0.055-0.08 0.121-0.14 0.191-0.18-0.025 6e-3 -0.049 4e-3 -0.073 0.014-0.109 0.042-0.221 0.178-0.313 0.348z"/>
		<path d="m37.326 57.784c-0.051 0.024-0.1 0.039-0.148 0.051 0.02 2e-3 0.036 0 0.057 3e-3 0.327 0.045 0.697 0.119 0.938 0.325 0.327 0.276 0.638 0.323 0.983 0.202-0.09-0.051-0.182-0.106-0.25-0.182-0.437-0.492-0.906-0.729-1.58-0.399z"/>
		<path d="m55.807 31.018c-0.104 0.056-0.281 0.173-0.426 0.082-2e-3 2e-3 -6e-3 4e-3 -8e-3 7e-3 -0.039 0.019-0.08 0.024-0.119 0.031-0.025 0.345-0.021 0.67 0.463 0.801 0.143 0.038 0.371 0.209 0.424 0.133 0.254-0.366 0.736-0.207 1.008-0.486 0.093-0.095 0.062-0.214-0.055-0.252-0.418-0.139-0.748-0.594-1.287-0.316z"/>
		<path d="m33.539 57.048c0.215-0.044 0.406 0.063 0.533 0.24 0.063 0.088 0.131 0.146 0.203 0.192-0.058-0.058-0.113-0.131-0.162-0.242-0.106-0.242-0.36-0.31-0.574-0.19z"/>
		<path d="m52.336 34.355c-0.244-0.061-0.447-0.162-0.604-0.358 0.262 0.2 0.229 0.379-0.021 0.586-0.193 0.161-0.387 0.378-0.234 0.651 0.172 0.309 0.49 0.302 0.781 0.216 0.271-0.079 0.711-0.108 0.713-0.397 4e-3 -0.295-0.276-0.608-0.635-0.698z"/>
		<path d="m34.948 57.402c-0.099 0.088-0.202 0.14-0.304 0.17 0.033-2e-3 0.063 1e-3 0.099-4e-3 0.388-0.053 0.625 0.162 0.756 0.521 0.122 0.332 0.175 0.697 0.435 0.966-0.098-0.689 0.268-1.16 0.91-1.222-0.281-0.067-0.538-0.276-0.776-0.425-0.41-0.256-0.714-0.358-1.12-6e-3z"/>
		<path d="m47.962 58.898c-9e-3 2e-3 -9e-3 -4e-3 -0.013-4e-3 3e-3 0.017 0 0.035 6e-3 0.051-0.012 0.046 0.091-0.05 7e-3 -0.047z"/>
		<path d="m44.987 62.855c-0.05-0.267-0.104-0.529-0.208-0.83-0.143 0.578-1.08 0.785-0.809 1.363 0.209 0.448 0.063 1.104 0.604 1.395 0.105-0.328 0.449-0.475 0.68-0.617 0.229-0.145 0.541 0.32 0.91 0.35 0.203 0.016 0.107 0.267 0.082 0.428-0.032 0.203-0.05 0.412-0.074 0.617 0.26 0.354 0.667 0.385 1.039 0.491 0.172-0.082 0.325-0.2 0.527-0.087 0.344 0.262 0.272 0.607 0.195 0.954-0.01 0.028-0.021 0.054-0.031 0.082 9e-3 -0.021 0.021-0.037 0.029-0.06 0.186-0.168 0.32-0.012 0.469 0.063 0.203-0.517 0.318-1.065 0.549-1.571-0.365-0.298-0.594-0.711-0.838-1.095-0.289-0.452-0.684-0.603-1.162-0.621-0.518-0.019-0.957-0.178-1.291-0.56-0.39 0.277-0.594 0.111-0.671-0.302z"/>
		<path d="m47.949 58.895c-5e-3 -0.021-6e-3 -0.043-8e-3 -0.064-2e-3 4e-3 -4e-3 5e-3 -4e-3 0.01-3e-3 0.034-5e-3 0.05 0.012 0.054z"/>
		<path d="m25.696 64.098c-0.031-0.088-0.044-0.179-0.068-0.268-0.024-0.028-0.054-0.049-0.064-0.1-0.262-1.162-0.597-2.308-0.728-3.494-0.026-0.232-0.084-0.452-0.213-0.651-0.326-0.499-0.583-0.507-0.879 0.013-0.221 0.389-0.446 0.463-0.777 0.137-0.141-0.139-0.385-0.26-0.511-0.142-0.322 0.306-0.702 0.249-1.067 0.269 0.113 0.399 0.146 0.812 0.084 1.216-0.095 0.602 0.13 1.118 0.332 1.646 0.168 0.437 0.535 0.557 0.979 0.502 0.197-0.022 0.453-0.201 0.536 0.153 0.269-0.46 0.647-0.313 0.952-0.104 0.38 0.262 0.737 0.545 1.162 0.744 0.213 0.099 0.396 0.28 0.415 0.56 6e-3 0.089 0.026 0.153 0.054 0.204 3e-3 -0.01 5e-3 -0.018 8e-3 -0.025-0.027-0.061-0.047-0.135-0.057-0.232-0.015-0.148-0.088-0.296-0.158-0.428z"/>
		<path d="m32.182 56.468c3e-3 0.107 8e-3 0.216 9e-3 0.324 1e-3 0.089 0.011 0.163 0.026 0.229 1e-3 -0.073 4e-3 -0.147 6e-3 -0.219 8e-3 -0.156-0.01-0.262-0.041-0.334z"/>
		<path d="m19.173 24.434c-0.052 0.024-0.103 0.051-0.147 0.09v1e-3h2e-3c0.042-0.04 0.093-0.066 0.145-0.091z"/>
		<path d="m45.303 11.133c0.099-0.101 0.211-0.195 0.344-0.278-0.176 0.074-0.281 0.169-0.344 0.278z"/>
		<path d="m23.326 63.393c-1e-3 -8e-3 -6e-3 -8e-3 -7e-3 -0.016-1e-3 0-1e-3 1e-3 -1e-3 1e-3 6e-3 2e-3 9e-3 0.017 8e-3 0.015z"/>
		<path d="m33.449 53.675c0.375-0.021 0.5-0.122 0.502-0.459 0.174-0.408 0.427-0.784 0.484-1.237 0.395-0.186 0.785-0.357 1.016-0.783 0.053-0.099 0.145-0.153 0.24-0.192-0.103 0.026-0.211 0.049-0.326 0.055-0.334 0.017-0.477-0.277-0.67-0.464-0.168-0.161-0.367-0.227-0.564-0.245-0.25-0.022-0.395-0.141-0.449-0.353-0.061-0.227 0.051-0.393 0.256-0.519 0.248-0.151 0.543-0.33 0.451-0.667-0.043-0.16-0.244-0.277-0.121-0.487-0.061 0.292-0.256 0.349-0.522 0.321-0.188-0.02-0.288-0.158-0.425-0.25-0.461-0.312-1.131-0.212-1.48 0.213-0.721 0.877-1.332 1.074-2.397 0.738-0.348-0.109-0.698-0.15-1.056-0.137 0.018 0.034 0.039 0.065 0.041 0.11 0.01 0.052 2e-3 0.087 4e-3 0.132 0.536 0.208 0.367 0.843 0.613 1.287 0.438-0.419 0.853-0.373 1.276 0.048 0.153 0.151 0.415 0.192 0.626 0.285 0.189 0.084 0.436 0.14 0.428 0.399-8e-3 0.214-0.227 0.298-0.397 0.363-0.239 0.09-0.427-0.044-0.511-0.252-0.131-0.324-0.299-0.507-0.661-0.33-0.071 0.035-0.182 0.088-0.188 0.143-0.021 0.19 0.118 0.46-0.229 0.466-0.327 6e-3 -0.694 0.131-0.97-0.134-0.318-0.306-0.756-0.31-1.201-0.606 0.086 0.213 0.127 0.305 0.16 0.399 0.082 0.225 0.591 0.378 0.152 0.689-0.357 0.253-0.889 0.087-1.089-0.295-0.019-0.037-0.036-0.077-0.046-0.117-0.082-0.36-0.043-0.893-0.479-0.931-0.161-0.014-0.294 0.048-0.416 0.134-0.02 0.096-0.024 0.209-0.016 0.339 0.01 0.127-0.11 0.221-0.154 0.338-0.107 0.29-0.037 0.487 0.281 0.574 0.263 0.072 0.518 0.171 0.771 0.266 0.436 0.161 0.488 0.487 0.137 0.802-0.152 0.138-0.334 0.246-0.439 0.446 0.797 3e-3 0.802 3e-3 0.848 0.845 0.018 0.351 0.225 0.527 0.52 0.636 0.285 0.104 0.555 0.235 0.816 0.382-0.025-0.607 0.209-0.695 1.003-0.63 0.841 0.069 1.729 0.235 2.431-0.49 0.126-0.131 0.309-0.252 0.51-0.173 0.245 0.096 0.082 0.334 0.142 0.495 5e-3 0.014 3e-3 0.022 7e-3 0.036 7e-3 -0.648 0.4-1.153 1.091-1.19z"/>
		<path d="m32.39 55.593c0.093-0.116 0.063-0.202 0.025-0.284-0.026 0.309-0.205 0.555-0.54 0.75-0.121 0.07-0.194 0.217-0.244 0.387 0.265-0.106 0.467-0.164 0.551 0.022-0.011-0.31-2e-3 -0.613 0.208-0.875z"/>
		<path d="m34.645 57.572c-0.143 6e-3 -0.264-0.022-0.369-0.092 0.113 0.114 0.239 0.129 0.369 0.092z"/>
		<path d="m32.357 55.157c0.01 0.053 0.035 0.101 0.058 0.149 0.011-0.135-3e-3 -0.279-0.058-0.44 0 0.097-0.017 0.189 0 0.291z"/>
		<path d="m35.691 51.004c0.131-0.033 0.25-0.072 0.34-0.105-0.084 0.033-0.217 0.055-0.34 0.105z"/>
		<path d="m108.27 51.385c-1.454-28.58-25.162-51.385-54.098-51.385-27.068 0-49.563 19.957-53.543 45.93-0.411 2.687-0.625 5.438-0.625 8.238s0.214 5.552 0.625 8.238c3.98 25.973 26.475 45.93 53.543 45.93 28.936 0 52.645-22.804 54.098-51.385 0.047-0.922 0.07-1.85 0.07-2.783s-0.024-1.861-0.07-2.783zm-22.377-28.485c0.275 0.09 0.566 0.136 0.809 0.333 0.394 0.318 0.439 0.539-0.122 0.664-0.089-0.084-0.175-0.168-0.263-0.251-0.139-0.162-0.309-0.195-0.514-0.162-0.258 0.042-0.346-0.108-0.318-0.337 0.027-0.248 0.189-0.318 0.408-0.247zm-11.996-6.857c0.221-0.101 0.195-0.289 0.215-0.479 0.08-0.856 0.605-1.498 1.287-1.851 0.375-0.195 0.912 0.245 1.258 0.612 0.129 0.135 0.214 0.311 0.318 0.468 0.135-0.054 0.268-0.117 0.408-0.159 0.25-0.076 0.396-0.189 0.162-0.432-0.105-0.109-0.238-0.208-0.145-0.369 0.102-0.169 0.293-0.142 0.457-0.122 0.121 0.014 0.248 0.055 0.352 0.117 0.385 0.227 0.709 0.541 1.227 0.523 0.189-6e-3 0.539 0.128 0.484 0.572-0.047 0.369 0.594 0.341 0.619 0.751l2e-3 1e-3c0.441-0.042 0.709 0.244 0.984 0.518 0.137 0.103 0.299 0.188 0.448 0.212 0.355 0.058 0.558 0.235 0.699 0.56 0.11 0.249 0.289 0.445 0.601 0.541 0.436 0.133 0.573 0.544 0.471 0.938-0.104 0.401-4e-3 0.676 0.244 0.968 0.613 0.72 0.541 2.103-0.156 2.732-0.244 0.219-0.385 0.556-0.73 0.665-0.063-0.012-0.129-4e-3 -0.193-8e-3 -0.248 0.202-0.592 0.021-0.875 0.084-0.016-0.013-0.03-0.018-0.047-0.03-0.311 0.042-0.621 0.07-0.934 7e-3 0.016 0.055 0.014 0.113-0.043 0.182-0.086 0.105-0.236 0.146-0.34 0.079-0.572-0.379-1.375-0.342-1.789-0.999l-2e-3 -1e-3c-0.605-0.123-1.068-0.562-1.643-0.754-0.039-3e-3 -0.078-5e-3 -0.117-8e-3 -0.254-0.115-0.471-0.3-0.742-0.391-0.129-0.042-0.271-0.211-0.182-0.331 0.51-0.668-0.15-0.769-0.478-1.035-0.041-1e-3 -0.08-4e-3 -0.121-8e-3 -0.067-0.167-0.131-0.334 3e-3 -0.501-3e-3 -0.041-7e-3 -0.082-7e-3 -0.122h-2e-3c-0.51 0.204-0.575-0.357-0.879-0.509-0.574-0.506-1.133-1.011-1.058-1.894 0.023-0.228 0.017-0.423 0.244-0.527zm-5.666 0.687c0.109-0.3 0.394-0.285 0.646-0.217 0.323 0.087 0.512 0.286 0.457 0.472-0.162 0.604 0.26 0.796 0.36 1.131 0.058 0.192 0.267 0.368 0.072 0.572-0.18 0.188-0.344 0.045-0.496-0.072-0.168-0.129-0.383-9e-3 -0.549-0.091-0.23-0.114-0.771-0.126-0.238-0.574 0.215-0.182 0.062-0.314-0.102-0.377-0.516-0.207-0.254-0.556-0.15-0.844zm-55.196 65.055c-0.355-0.053-0.434-0.416-0.535-0.699-0.055-0.152 7e-3 -0.387 0.227-0.365 0.366 0.035 0.508 0.324 0.584 0.629-0.01 0.218-0.047 0.468-0.276 0.435zm4.071 1.854c-0.337 0.283-0.674 0.09-0.967-0.133-1.16-0.879-1.61-2.037-1.343-3.439 1.317 0.355 1.956 1.386 2.466 2.535 0.168 0.377 0.173 0.761-0.156 1.037zm20.416 11.683c-0.225-0.023-0.52-0.063-0.49-0.34 0.027-0.265 0.357-0.23 0.566-0.275 0.209-0.043 0.393 0.064 0.387 0.293-8e-3 0.27-0.245 0.293-0.463 0.322zm7.644 3.321c-0.127-0.084-0.254-0.168-0.381-0.254-0.114-0.162-0.286-0.238-0.457-0.32-0.296-0.145-0.354-0.401-0.281-0.688 0.076-0.293 0.35-0.256 0.567-0.282 0.142-0.021 0.292 0.03 0.436 0.016 0.857-0.09 1.059 0.021 1.107 0.631 0.047 0.576-0.239 0.838-0.991 0.897zm2.128-6.965c-0.129 0.082-0.196 0.129-0.114 0.271 0 0 1e-3 4e-3 0 4e-3 -0.783 0.479-1.594 0.807-2.52 0.416-0.193-0.082-0.398-0.252-0.592-0.148-0.593 0.312-0.811-0.066-0.967-0.508-0.15-0.422-0.535-0.689-0.722-1.117 0.456-0.143 0.824 0.271 1.079 0.234 0.575-0.084 1.251 0.018 1.73-0.438 0.333-0.318 0.477-0.4 0.593 0.168 0.133 0.653 0.794 0.912 1.403 0.631 0.041 2e-3 0.083 2e-3 0.124 2e-3 0.227 0.17 0.187 0.358-0.014 0.485zm4.478-6.705c-0.262-6e-3 -0.449-0.119-0.445-0.408 4e-3 -0.213 0.131-0.371 0.348-0.362 0.289 8e-3 0.398 0.252 0.512 0.461-0.046 0.25-0.214 0.313-0.415 0.309zm43.015-40.368c-0.029 0.054-0.07 0.095-0.127 0.121-0.385-0.035-0.365-0.474-0.627-0.638-0.094 0.09-0.115 0.224-0.049 0.287 0.813 0.756 0.731 1.739 0.533 2.648-0.175 0.804-0.875 1.257-1.646 1.533-0.242-0.029-0.311-0.204-0.297-0.401 0.043-0.582-0.328-0.868-0.764-1.118-0.962-0.551-1.015-0.707-0.671-1.771 0.115-0.357 0.263-0.707 0.308-1.085 0.022-0.19 0.074-0.379 0.283-0.446 0.248-0.08 0.313 0.162 0.45 0.276-2e-3 -0.011 0.011-0.017-6e-3 -0.029-0.369-0.275-0.104-0.63-0.119-0.949-4e-3 -0.086-0.012-0.171-0.016-0.257 0.164-0.303 0.176-0.609-0.089-0.849-0.188-0.175-0.104-0.381-0.146-0.572-2e-3 -0.024-0.01-0.04-0.012-0.062-0.24-0.025-0.479-0.047-0.711-0.1-0.166-0.038-0.31-0.108-0.414-0.216-0.054 1e-3 -0.106 6e-3 -0.16 0.019-0.049 0.03-0.101 0.049-0.151 0.068-0.078-0.011-0.136 0.012-0.191 0.037-0.049 0.233-0.061 0.473-0.053 0.717-0.205-0.042-0.324-0.169-0.412-0.329-0.035 0.019-0.063 0.046-0.105 0.051-0.541-0.083-0.924 0-0.975 0.681-0.027 0.369-0.326 0.503-0.627 0.212-0.568-0.55-1.221-0.87-2.018-0.873-0.171 0-0.244-0.146-0.337-0.259-0.271-0.307-0.465-0.626-0.188-1.031 0.041-0.061 0.09-0.116 0.137-0.172-0.047-0.097-0.094-0.193-0.154-0.279-0.229-0.325-0.527-0.347-0.777-0.054-0.196 0.233-0.239 0.744-0.637 0.598-0.383-0.142-0.344-0.62-0.336-0.999 2e-3 -0.063 6e-3 -0.125 8e-3 -0.187 0.063-0.183 0.234-0.191 0.39-0.23-0.011-7e-3 -0.023-5e-3 -0.031-0.013-0.01-0.034-8e-3 -0.068-0.017-0.103-0.405 0.164-0.946 0.052-1.235-0.299 8e-3 -0.195-0.065-0.368-0.16-0.532-0.123-0.215-0.313-0.428-0.08-0.674 0.234-0.248 0.529-0.414 0.873-0.442 0.298-0.024 0.261 0.263 0.341 0.444 0.077-0.176 0.116-0.318 0.131-0.443-0.172-0.529-0.459-0.645-1.195-0.514-0.467-0.27-0.889-0.607-1.482-0.615-0.398-5e-3 -0.346-0.387-0.389-0.672-0.096-0.655-0.184-1.313-0.342-1.958-6e-3 0.207-0.018 0.413-0.053 0.617-0.035 0.192-0.021 0.398-0.302 0.479-0.268 0.077-0.381-0.052-0.514-0.214-0.031-0.09-0.058-0.183-0.095-0.266-0.235 0-0.475-2e-3 -0.713 5e-3 -0.123 4e-3 -0.326 0.011-0.354 0.075-0.186 0.44-0.391 0.521-0.756 0.159-0.154-0.153-0.244 0.077-0.314 0.188-0.217 0.343-0.426 0.524-0.736 0.079-0.123-0.176-0.348-0.226-0.559-0.262-0.041-3e-3 -0.082-5e-3 -0.123-5e-3 -0.359 0.34-0.773 0.487-1.266 0.376-0.654-0.089-0.588 0.377-0.359 0.636 0.445 0.51 0.031 1.214 0.482 1.685 0.01 0.011 6e-3 0.047-4e-3 0.061-0.76 1.025 0.309 1.776 0.398 2.673 0.12 0.044 0.241 0.089 0.362 0.134 0.388 0.225 0.627 0.543 0.66 1.007 8e-3 0.121 0.043 0.281 0.125 0.348 0.764 0.617 0.631 1.637 1.09 2.389 0.103 0.166 0.086 0.478 0.396 0.346 0.233-0.1 0.155-0.308 0.041-0.479-0.076-0.116-0.117-0.235 0.018-0.33 0.148-0.104 0.244 0.036 0.314 0.119 0.629 0.736 1.319 0.679 2.16 0.339 0.403-0.164 0.901-0.594 1.428-0.142 0.082 0.07 0.184-0.048 0.256-0.128 0.113-0.125 0.051-0.467 0.314-0.375 0.223 0.077 0.125 0.368 0.145 0.568v0.036c0.039 0 0.078 0 0.117-1e-3 0.317 0.109 0.68 0.084 0.963 0.299 0.024 0.035 0.031 0.076 0.039 0.117 0.037-0.021 0.074-0.039 0.113-0.057 0.135-0.133 0.34-0.162 0.5-0.256 0.184-0.019 0.401-0.048 0.407 0.217 6e-3 0.281 0.121 0.5 0.291 0.698 0.16 0.186 0.097 0.374-0.03 0.499-0.293 0.289-0.119 0.438 0.127 0.591 0.526 0.529 0.496 1.357 1.012 1.892 0.01 0.285 0.123 0.541 0.313 0.733 0.431 0.436 0.437 1.084 0.826 1.549 0.174 0.205-0.076 0.424-0.31 0.503-0.26 0.088-0.528 0.089-0.797-5e-3 -0.146-0.052-0.311-0.259-0.442-0.101-0.15 0.178 0.063 0.333 0.161 0.484h-2e-3c-0.26 0.197 0.023 0.573-0.252 0.765v1e-3c-0.174 0.153-0.387 0.231-0.576 0.083-0.365-0.285-0.801-0.282-1.197-0.245-0.609 0.056-1.088-0.356-1.666-0.356-0.068 0-0.127-0.05-0.154-0.095-0.404-0.658-1.09-0.989-1.646-1.468-0.336-0.289-0.519-0.801-0.371-1.395 0.188-0.759 0.342-1.541 0.396-2.328-0.056-0.062-0.104-0.129-0.181-0.168-0.178-0.137-0.387-0.148-0.598-0.157-0.14-6e-3 -0.246-0.053-0.343-0.113-0.131-0.043-0.262-0.098-0.395-0.166-0.635-0.326-0.814-0.188-0.85 0.522-8e-3 0.146-8e-3 0.295-0.029 0.44-0.037 0.271-0.174 0.501-0.445 0.55-0.287 0.051-0.389-0.216-0.473-0.423-0.244-0.596-0.652-0.959-1.309-1.036-0.138-0.017-0.287-0.089-0.396-0.18-0.375-0.316-0.692-0.059-0.724 0.224-0.063 0.619-0.829 0.429-0.954 0.947-0.021 0.087-0.228-0.07-0.201-0.199 0.071-0.377-0.062-0.651-0.354-0.878-0.057-0.044-0.11-0.16-0.092-0.217 0.232-0.708-0.438-0.579-0.73-0.757-0.346-0.21-0.69-0.136-0.897 0.308-0.139-0.269-0.059-0.501-0.086-0.724-0.256-0.248-0.082-0.52 0.021-0.734 0.08-0.172 0.125-0.273-0.019-0.405-4e-3 -0.042-6e-3 -0.083-0.01-0.123 0.401-0.206 0.851-5e-3 1.26-0.135 2e-3 -0.038 5e-3 -0.075 5e-3 -0.112-0.355-0.182-0.574-0.523-0.882-0.762-0.039-3e-3 -0.078-6e-3 -0.116-8e-3 -0.285-0.271-0.521-0.583-0.732-0.912 0 0.217-0.248 0.327-0.48 0.412-0.369 0.133-0.73 0.213-1.029 0.525-0.223 0.234-0.551 0.076-0.807-0.08-0.615-0.379-0.965-0.328-1.506 0.18-0.176 0.166-0.332 0.399-0.629 0.386-0.871 0.042-0.871 0.042-0.867-0.792 0-0.172-0.104-0.454-0.223-0.322-0.422 0.462-0.594-0.024-0.855-0.155-0.148-0.075-0.287-0.169-0.43-0.255-0.316 0.021-0.666-0.074-0.896 0.252-0.381 0.641-0.379 0.639-0.854 6e-3 -0.072-0.096-0.166-0.2-0.273-0.242-0.42-0.164-0.469-0.385-0.146-0.694 0.149-0.144 0.287-0.383 0.053-0.462-0.769-0.26-0.778-1.3-1.647-1.486-0.373-0.08-0.041-0.496 0.024-0.753-0.717-0.014-1.364-0.301-2.057-0.198-0.197 0.029-0.271-0.135-0.289-0.333-0.045-0.505 0.389-0.715 0.644-1.022 0.092-0.113 0.317 0.038 0.356 0.23 0.043 0.21 0.151 0.235 0.313 0.15 0.092-0.047 0.221-0.099 0.244-0.175 0.059-0.192-0.139-0.216-0.252-0.301-0.322-0.245-0.807-0.346-0.912-0.792-0.02-8e-3 -0.039-0.015-0.057-0.022-0.057-8e-3 -0.113-0.014-0.172-0.02-0.098-0.077-0.17-0.157-0.227-0.24-0.064-0.027-0.119-0.07-0.146-0.163-0.063-0.225 0.086-0.387 0.246-0.525 0.043-0.037 0.088-0.073 0.131-0.11 0.028-0.096 0.053-0.194 0.076-0.292-0.55 0.246-0.935 0.664-1.177 1.239-0.053 0.125-0.188 0.195-0.328 0.124 0.193 0.156 0.384 0.342 0.587 0.511 0.096 0.08 0.194 0.169 0.247 0.283 0.08 0.168 0.306 0.446 0.119 0.514-0.623 0.228-0.147 1.218-0.907 1.257-0.431 0.022-0.541 0.173-0.384 0.541 0.117 0.273 0.054 0.553 0.064 0.829 0.062 0 0.127 0.013 0.186 0.049 0.349 0.216 0.709 0.458 0.734 0.933 0.023 0.429-0.146 0.706-0.578 0.884-0.699 0.29-1.072 0.885-1.26 1.603-0.014 4e-3 -0.025 1e-3 -0.039 2e-3 0.34 0.806-0.504 1.961-1.375 1.758-0.229-0.053-0.459-0.034-0.689-3e-3 -0.811 0.11-1.098 0.798-0.605 1.461 0.221 0.297 0.527 0.461 0.869 0.596 0.646 0.255 0.701 0.467 0.324 1.047-0.211 0.326-0.092 0.587 0.311 0.763 0.193 0.084 0.408 0.139 0.531 0.37 0.061 0.111 0.176 0.228 0.076 0.305-0.277 0.215-0.551 0.42-0.799 0.678-0.15 0.158-0.369 0.042-0.566-0.031v0.012c6e-3 0.077-6e-3 0.151-6e-3 0.227 0.129 0.333 0.295 0.29 1.006 0.093 0.063 0.157 0.207 0.234 0.328 0.331 0.34 0.269 0.319 0.583-0.072 1.054-0.197 0.108-0.453 0.13-0.584 0.34-0.105 0.168-0.412 0.226-0.33 0.482 0.076 0.236 0.367-0.104 0.525 0.235-0.467 0.081-0.887 0.291-1.355 0.323-0.084 0.09-0.178 0.177-0.268 0.251-0.396 0.033-0.813 0.349-1.191-0.059-4e-3 -0.07 2e-3 -0.136 4e-3 -0.203-0.396-0.073-0.795 0.013-1.193 0.022-0.039 0.078-0.078 0.156-0.127 0.25-0.346 0.096-0.68 0.209-0.883 0.539-0.033 0.055-0.08 0.131-0.127 0.133-0.779 0.049-1.512 0.615-2.324 0.274-2e-3 3e-3 -3e-3 6e-3 -4e-3 9e-3 0.012 0.029 0.025 0.06 0.035 0.085 0.189 0.478 0.54 0.617 0.997 0.544 0.651-0.103 1.067 0.128 1.222 0.784 0.123 0.405 0.037 0.725-0.332 0.98-0.443 0.31-0.776 0.81-1.424 0.707-0.221-0.034-0.232 0.143-0.244 0.301 0 0.261-0.231 0.335-0.383 0.474-0.27 0.103-0.383 0.349-0.512 0.572-0.268 0.468-0.232 0.537 0.299 0.59 0.398 0.04 0.743 0.251 1.14 0.313 0.317 0.052 0.22 0.349 0.243 0.599 0.039-0.294 0.279-0.246 0.469-0.271 0.609-0.072 1.211 0.09 1.82 0.047 0.186-0.012 0.357 0.092 0.348 0.285-0.043 0.854 0.633 1.14 1.193 1.453 1.047 0.59 1.064 0.56 1.287 1.672 0.283-0.343 0.291-0.804 0.646-1.08 0.453-0.354 0.605-0.35 0.801 0.179 0.068 0.188 0.285 0.327 0.201 0.569-4e-3 0.09-2e-3 0.181-0.023 0.269-0.01 6e-3 -0.016 0.017-0.025 0.021 0.518 0.217 0.834 0.58 1.078 1.164 0.396 0.943 0.354 1.795 6e-3 2.689-0.113 0.289-0.188 0.628-0.547 0.627 0 2e-3 2e-3 4e-3 2e-3 6e-3 -0.01 0.096-6e-3 0.188-0.01 0.279 0.143 0.371 0.129 0.822 0.532 1.061 0.197 0.116 0.369 0.271 0.554 0.409 0.692 0.022 1.27 0.233 1.59 0.916 0.145 0.304 0.408 0.438 0.752 0.488 0.41 0.061 0.834 0.116 1.191 0.366-0.101 0.826-0.072 1.072 0.293 1.974 0.147 0.367 0.225 0.713-0.037 1.057 0 0.025-2e-3 0.054-2e-3 0.079 0.041-3e-3 0.08-0.013 0.121 3e-3 0.311 0.543 0.25 0.979-0.341 1.455-0.405 0.328-0.731 0.752-1.209 0.998-0.297 0.152-0.34 0.33-0.144 0.652 0.166 0.272 0.636 0.625 0.056 0.979-0.123 0.111-0.269 0.209-0.367 0.339-0.36 0.461-0.797 0.633-1.381 0.475-0.551-0.146-1.073-0.074-1.524 0.326-0.254 0.225-0.418 0.42 0.063 0.537 0.174 0.041 0.354 0.063 0.304 0.299-0.046 0.19-0.218 0.264-0.392 0.248-0.205-0.021-0.406-0.088-0.609-0.135-0.313-0.072-0.621-0.052-0.76 0.268-0.215 0.496-0.611 0.475-1.002 0.377-0.51-0.129-1.016-0.264-1.545-0.184-0.307 0.047-0.439-0.33-0.74-0.277-0.24-0.025-0.465-0.135-0.695-0.213 0.025 0.011 0.053 0.019 0.076 0.031 0.199 0.102 0.42 0.176 0.604 0.312 0.145 0.232 0.234 0.492 0.314 0.754 0.01 0.176 0.078 0.303 0.27 0.342 0.17 0.033 0.229 0.148 0.213 0.316-0.018 0.186-0.146 0.238-0.295 0.271-0.203 0.047-0.398 0.123-0.6 0.172-0.309 0.073-0.523 0.18-0.529 0.559-4e-3 0.23-0.195 0.402-0.363 0.564-0.148 0.141-0.357 0.303-0.225 0.524 0.121 0.201 0.338 0.069 0.516 0.033 0.49-0.103 1.004-0.148 1.244-0.699 0.033-0.08 0.146-0.06 0.23-0.06 0.547-0.092 0.881 0.17 1.049 0.666 0.207 0.607-0.053 0.938-0.709 0.986-0.613 0.045-1.156 0.346-1.721 0.559-0.254 0.097-0.314 0.421-0.168 0.593 0.639 0.752 0.313 1.424-0.102 2.104-0.084 0.082-0.168 0.166-0.25 0.248-0.293-0.287-0.629-0.483-1.051-0.498-0.742-0.022-0.963-0.713-1.396-1.121-0.149-0.141 0.1-0.225 0.226-0.27 0.359-0.125 0.369-0.35 0.2-0.637-0.247-0.422-0.41-0.869-0.382-1.369-0.39-0.092-0.641-0.211-0.231-0.625 0.23-0.232 0.509-0.494 0.141-0.877-0.176-0.184-0.12-0.455 0.106-0.592 0.15-0.092 0.285-0.209 0.43-0.309-0.354 0-0.677-0.052-0.852-0.55-0.107-0.308-0.541-0.276-0.85-0.162-0.228 0.086-0.531 0.179-0.508 0.484 0.025 0.344 0.262 0.569 0.609 0.627 0.199 0.032 0.349 0.133 0.502 0.245 0.328 0.24 0.302 0.478-0.077 0.568-0.362 0.088-0.619 0.219-0.687 0.607 0 2e-3 -0.039 2e-3 -0.055-6e-3 -0.018-8e-3 -0.029-0.029-0.044-0.043-0.821 0.037-0.854 0.074-0.877 1.004 1e-3 0.041 3e-3 0.082 5e-3 0.123 0.266-0.055 0.504 0.064 0.75 0.129 0.393 0.896 0.334 0.975-0.754 1.012 2e-3 0.123 4e-3 0.248 6e-3 0.371 0.476 0.084 0.854 0.125 0.707 0.857-0.101 0.498 0.084 1.137 0.701 1.424 0.178 0.082 0.367 0.201 0.268 0.422-0.101 0.223-0.25-0.055-0.374-0.018-0.694 0.213-1.417-0.174-2.122 0.153-0.462 0.216-1.24 0.041-1.637-0.25-7e-3 -5e-3 -0.015-8e-3 -0.021-0.014-0.073-0.056-0.137-0.113-0.177-0.177-2e-3 -0.038-4e-3 -0.077-7e-3 -0.118-0.042 0.094-0.117 0.184-0.122 0.278-0.052 1.097-0.268 1.277-1.395 1.148-0.082-0.01-0.163-0.027-0.244-0.043-0.152-0.498-0.503-0.73-1.01-0.754-0.406-0.029-0.786-0.117-1.018-0.502-0.475-0.209-0.951-0.412-1.421-0.631-0.088-0.041-0.215-0.148-0.21-0.215 0.046-0.607-0.382-0.635-0.809-0.732-0.578-0.133-0.875-0.684-1.33-1.008-0.172-0.121-0.061-0.367 0.039-0.52 0.22-0.339 0.105-0.562-0.161-0.812-0.37-0.347-0.546-1.496-0.347-1.949 0.138-0.313 0.438-0.271 0.695-0.332-0.422-0.211-0.668-0.53-0.748-1.014-0.07-0.427-0.512-0.593-0.837-0.32-0.169 0.142-0.31 0.229-0.493 0.121-0.289-0.172-0.401 0.021-0.453 0.228-0.052 0.213 0.045 0.371 0.311 0.342 0.333-0.037 0.328 0.125 0.25 0.385-0.276 0.922-0.268 0.922-1.232 0.682-0.436-0.106-0.665 0.059-0.586 0.521 0.08 0.465 0.24 0.928 0.078 1.397-0.124 0.363-0.234 0.762-0.785 0.426-0.39-0.239-0.549 2e-3 -0.5 0.379 0.039 0.302-0.02 0.449-0.352 0.406-0.192-0.022-0.295 0.125-0.418 0.24-0.518 0.471-0.584 0.445-0.734-0.256-0.018-0.084-0.036-0.166-0.055-0.248-0.182-0.559-0.621-0.963-0.888-1.479-0.282-0.545-0.897-0.685-1.509-0.664-0.107 0.229-0.238 0.438 0.022 0.678 0.171 0.156 0.224 0.396 0.175 0.746-0.744-0.607-1.563-0.908-2.477-0.916-0.477-0.146-0.938-0.402-1.465-0.207-0.054 0.021-0.154 0.027-0.18-4e-3 -0.484-0.588-1.257-0.641-1.879-0.951-0.782-0.391-1.266-1.115-2.027-1.494-0.213-0.105-0.353-0.188-0.619-0.109-0.339 0.103-0.741-0.051-0.813-0.42-0.187-0.957-1.05-1.043-1.695-1.338-0.738-0.34-1.025-0.738-0.787-1.543-0.291-0.553-0.527-1.129-0.734-1.721-0.117-0.334-0.304-0.645-0.652-0.807-0.562-0.131-0.914-0.502-1.11-1.021-0.226-0.59-0.791-0.711-1.267-0.946-0.184-0.093-0.336 0-0.293 0.243 0.022 0.125 0.07 0.244 0.088 0.367 0.025 0.188 0.053 0.418-0.189 0.467-0.244 0.048-0.349-0.18-0.338-0.36 0.037-0.646-0.285-1.154-0.553-1.699-0.162-0.33-0.34-0.443-0.684-0.35-0.576 0.155-0.979-0.093-1.252-0.586-0.234-0.427-0.484-0.832-0.937-1.072-0.397-0.211-0.113-0.564-0.158-0.853-3e-3 -0.082-5e-3 -0.163-8e-3 -0.245-0.536-0.301-0.615-0.859-0.767-1.373-0.087-0.3-0.156-0.604-0.234-0.906-0.201-0.926-0.926-1.64-1.058-2.597-0.015-0.108-0.104-0.206-0.222-0.169-0.23 0.074-0.129 0.258-0.123 0.42 0.027 0.754 0.158 1.5 0.219 2.252-0.129-0.199-0.26-0.396-0.393-0.592-0.768-4.006-1.23-8.044-1.032-12.135 0.185-3.828 0.753-7.597 1.698-11.327 0.592-2.336 1.332-4.596 2.283-6.798h1e-3c0.11-0.453 0.28-0.884 0.503-1.295 0.369-0.429 0.479-0.985 0.713-1.48 0.783-1.651 1.672-3.237 2.637-4.776 0.35-0.105 0.689-0.256 1.004-0.487-0.537 0.828-1.078 1.653-1.594 2.496-0.352 0.574-0.543 1.208-0.828 1.807-0.293 0.064-0.366 0.256-0.374 0.539-7e-3 0.266-0.124 0.395-0.321 0.373 0.222 0.248 0.275 0.618 0.494 0.916 0.297-0.35 0.658-0.604 0.855-1.001 0.431-0.864 1.084-1.566 1.699-2.29 0.594-0.7 1.134-1.443 1.707-2.149 0.656-0.811 1.368-1.628 2.234-2.262 0.302 0.084 0.563-4e-3 0.791-0.197 0.16-0.133 0.334-0.24 0.519-0.333 0.871-0.444 1.104-0.366 1.448 0.484-0.15 0.637-0.533 1.15-0.946 1.633-0.673 0.788-1.495 1.451-1.724 2.561-0.114 0.552-0.627 0.661-1.51 0.444 0.481 0.994 0.389 1.918-0.27 2.793-0.137 0.183-0.233 0.352-0.492 0.239-4e-3 -3e-3 -6e-3 -7e-3 -0.01-0.011-0.135 0.464-0.253 0.92-0.741 1.217-0.321 0.195-0.33 0.86-0.95 0.643-0.016 0.08-0.052 0.162-0.045 0.24 0.016 0.181 0.104 0.533 0.184 0.462 0.408-0.354 0.689 0.62 1.053 0.068 0.171-0.259 0.443-0.291 0.708-0.355 0.704-0.173 0.772-0.341 0.39-0.97-0.092-0.152-0.182-0.414 0.025-0.4 0.6 0.038 0.756-0.4 1.012-0.964 0.152 0.719 0.672 1.079 0.686 1.683 7e-3 0.278 0.16 0.375 0.422 0.267 0.194-0.08 0.384-0.169 0.574-0.255-0.036-2e-3 -0.073-4e-3 -0.109-7e-3 -0.346-0.302-0.715-0.583-0.385-1.135 0.063-0.104-0.066-0.315-0.085-0.479-0.083-0.694-0.115-1.38 0.458-1.918 0.088-0.041 0.175-0.082 0.262-0.123 0.639-0.479 1.104-1.126 1.648-1.695 0.295-0.308 0.546-0.549 1.058-0.445 0.456 0.092 0.947-0.04 1.325-0.388-0.141-1.186 0.562-2.051 1.15-2.946 0.412-0.627 0.895-1.207 1.348-1.807 0.074-0.1 0.172-0.104 0.277-0.054 0.023-0.643 0.441-0.736 0.979-0.784 1.004-0.09 1.973-0.324 2.869-0.957-0.285-0.217-0.648-0.117-0.818-0.393-0.012-0.018-0.026-0.034-0.033-0.054-0.258-0.694 0.42-0.868 0.715-1.246 0.199-0.256 0.496-0.411 0.833-0.186 0.321 0.216 0.312 0.771-0.044 1.111-0.162 0.156-0.385 0.25-0.58 0.372 0.643 0.308 1.182-0.103 1.74-0.28 0.758-0.241 1.484-0.579 2.298-0.603 0.321 6e-3 0.597-0.147 0.884-0.254 0.508-0.228 0.89 0.138 0.998 0.46 0.138 0.414 0.352 0.375 0.629 0.357 0.243-0.015 0.459 0.033 0.646 0.19 0.139 0.027 0.245 0.089 0.258 0.249 0.293 2e-3 0.586 5e-3 0.881 8e-3 0.033-0.023 0.064-0.053 0.103-0.066 0.327-0.116 0.319-0.692 0.71-0.621 0.324 0.059 0.584 0.358 0.869 0.557 0.068 0.046 0.143 0.082 0.211 0.127 0.125 1e-3 0.25 2e-3 0.375 2e-3 0.296 0.216 0.59 0.208 0.884-3e-3l1e-3 -1e-3c0.271-0.162 0.48-0.451 0.875-0.338 0.342 0.098 0.593 0.234 0.669 0.619 0.08 0.406-0.306 0.361-0.536 0.548 0.548 0.282 1.22-0.066 1.637 0.447 0.012 0.196 0.095 0.316 0.313 0.285 0.309-0.045 0.559 0.127 0.832 0.214 0.252 0.039 0.458 0.361 0.754 0.121 4e-3 -0.25 8e-3 -0.499 0.012-0.748 0.054-0.041 0.088-0.042 0.115-0.032-6e-3 -0.136-0.102-0.262-0.061-0.405-0.086-0.086-0.092-0.252-0.19-0.325-0.409-0.207-0.509-0.469-0.163-0.831 0.084-0.088 0.172-0.21 0.182-0.324 0.113-1.473 1.143-1.979 2.381-2.176 0.653-0.104 1.211-0.551 1.871-0.602-0.082-0.193-0.037-0.431-0.016-0.648 0.037-0.411-0.038-0.587-0.512-0.497-0.529 0.1-0.835-0.264-0.758-0.811-0.023 0.027-0.047 0.045-0.079 0.067-0.526 0.038-0.56-0.364-0.646-0.724 0.197-0.338 0.426-0.624 0.881-0.614 0.231 5e-3 0.366-0.146 0.371-0.39 0.046-0.106 0.121-0.19 0.186-0.272-0.584-0.099-1.21 0.027-1.706-0.397-0.071-0.053-0.122-0.128-0.191-0.182-0.46-0.36-0.38-0.802-0.195-1.265 0.077-0.193 0.19-0.312 0.415-0.313 0.54-4e-3 0.563-0.325 0.428-0.727-0.099-0.292-0.16-0.572-0.033-0.793-0.217 0.223-0.328 0.496-0.182 0.884 0.129 0.343-0.039 0.492-0.347 0.552-0.271 0.053-0.544-0.012-0.817 5e-3 -0.688 0.043-0.749 0.101-0.843 0.817-0.055 0.216-0.149 0.407-0.329 0.545-0.669 0.117-1.096-0.367-1.43-0.761-0.368-0.435-0.521-0.457-0.768 0.021-0.139 0.268-0.356 0.39-0.654 0.415-1.164 0.1-1.605 0.993-2.038 1.886-0.087 0.178-5e-3 0.368 0.038 0.552 0.204 0.86 0 1.177-0.852 1.448-0.51 0.162-1.09 0.304-1.539 0.165-0.604-0.189-1.281-0.289-1.797-0.728-0.156-0.134-0.309-0.368-0.442 0.016-0.158 0.288 0.181 0.742-0.309 0.918-0.56 0.202-1.095 0.552-1.724 0.189-0.422-0.242-0.875-0.264-1.328-0.081-0.227 0.091-0.441 0.169-0.563-0.141-0.914 0.18-1.742 0.604-2.583 0.968-1.026 0.445-1.741 1.259-2.306 2.215-0.403 0.685-0.999 1.173-1.707 1.522-0.266 0.131-0.53 0.021-0.797-0.039-0.207-0.045-0.389-0.028-0.285 0.291 0.335 1.03 0.133 1.52-0.867 2.157-0.127-0.294 0.068-0.522 0.15-0.772 0.049-0.147 0.043-0.299-0.11-0.387-0.128-0.074-0.244-1e-3 -0.349 0.071-0.291 0.197-0.434 0.505-0.596 0.799-0.123 0.226-0.264 0.46-0.569 0.405-0.286-0.052-0.304-0.31-0.337-0.541-0.302-0.06-0.605-0.119-0.873-0.171-0.168-0.713 0.13-1.394 0.119-2.099 0.018-0.026 0.035-0.053 0.053-0.078 0.5 0.045 1.064-0.312 1.102-0.794 0.027-0.358 0.183-0.53 0.467-0.654 0.477-0.03 0.918-0.109 0.945-0.729 8e-3 -0.169 0.127-0.261 0.261-0.336 0.29-0.045 0.635 0.171 0.866-0.179 0.031-3e-3 0.063-6e-3 0.093-9e-3 0.349-0.122 0.583-0.336 0.795-0.663 0.302-0.465 0.833-0.691 1.367-0.787 0.962-0.173 1.933-0.301 2.603-1.123 0.475-0.584 1.174-0.872 1.728-1.352 0.06-0.052 0.167-0.113 0.225-0.093 0.743 0.261 1.395-0.141 2.086-0.261 0.368-0.063 0.694-0.153 0.918-0.476 0.035-0.051 0.12-0.13 0.134-0.122 0.623 0.401 1.084-0.205 1.631-0.26 0.154-0.015 0.257 0.065 0.26 0.208 0.011 0.708 0.352 0.309 0.581 0.165 0.173-0.108 0.31-0.272 0.511-0.456-0.319-0.182-0.604-0.346-0.891-0.507-0.112-0.064-0.223-0.134-0.223-0.28 0-0.18 0.133-0.266 0.282-0.288 0.563-0.086 1.014-0.565 1.706-0.292 0.449 0.177 1.008-0.048 1.197-0.652 0.164-0.523 0.664-0.603 1.067-0.804 0.44-0.22 0.951-0.312 1.166-0.864 0.118-0.304 0.484-0.304 0.755-0.402 1.118-0.41 2.238-0.816 3.363-1.209 0.383-0.134 0.791-0.079 1.189-0.094 0.249-9e-3 0.52 0.025 0.697-0.207 0.139-0.181 0.317-0.366 0.516-0.192 0.252 0.22 0.697 0.269 0.715 0.718 8e-3 0.188-5e-3 0.378-8e-3 0.567 0.93 0.733 1.135 1.997 2.021 2.764 0.229 0.199 0.193 0.453 0.042 0.682-0.103 0.154-0.241 0.284-0.368 0.421-0.178 0.189-0.493 0.314-0.388 0.649 0.042 0.132 0.12 0.211 0.212 0.27 0.082-0.056 0.167-0.108 0.247-0.167 0.308-0.154 0.612-0.029 0.917 0.011 0.166 0.021 0.395 0.144 0.484 0.027 0.295-0.392 0.793-0.469 1.117-0.757 0.326-0.292 0.525-0.299 0.803-0.036 0.211 0.201 0.418 0.395 0.525 0.692 0.117 0.324 0.535 0.35 0.705 0.06 0.119-0.206 0.365-0.197 0.531-0.381-0.074-0.279-0.502-0.392-0.422-0.768 0.049-0.243 0.24-0.387 0.359-0.582 0.166-0.277 0.441-0.291 0.719-0.293 0.455-3e-3 0.875-0.099 1.211-0.434 0.656-0.144 1.018 0.357 1.391 0.714 0.718 0.684 1.438 1.058 2.439 0.604 0.373-0.169 0.732 0.125 1.008 0.381 0.193 0.178 0.148 0.371-0.129 0.478-0.359 0.14-0.709 0.261-1.098 0.097-0.145-0.062-0.305-0.168-0.48-0.022 0.074 0.271 0.344 0.349 0.515 0.521-0.082 0.125-0.162 0.25-0.244 0.375-0.315 0.082-0.664 0.215-0.55 0.598 0.099 0.326 0.479 0.25 0.763 0.247 0.185-2e-3 0.383-0.242 0.545 0.04-0.594 0.091-1.149 0.354-1.774 0.32-0.283-0.015-0.539-0.045-0.771-0.207-0.229-0.161-0.438-0.181-0.692-0.017-0.404 0.257-0.918 0.101-1.148-0.313-0.063-0.109-0.092-0.239-0.166-0.336-0.131-0.17-0.32-0.185-0.516-0.119-0.105 0.036-0.197 0.111-0.178 0.228 0.057 0.317 0.342 3e-3 0.49 0.2-0.393 0.437-0.297 0.79 0.254 1.038 0.224 0.101 0.328 0.258 0.328 0.543 0 0.685 0.258 0.919 0.957 0.93 0.692 0.011 1.389-0.026 2.08 5e-3 0.354 0.016 0.778 1e-3 0.717 0.616-0.013 0.106 0.465 0.303 0.735 0.389 0.324 0.102 0.656 0.182 0.978 0.303 0.06-0.052 0.129-0.095 0.228-0.105 0.18-2e-3 0.358-0.023 0.529 0.054 0.368 0.09 0.606 0.431 0.977 0.521 0.137 0.122 0.344 0.222 0.436 0.047 0.316-0.602 0.779-0.303 1.199-0.236 0.355 0.058 0.693 0.303 0.869-0.317 0.09-0.32 0.535-0.243 0.812-0.065 0.168 0.108 0.291 0.252 0.478 0.053 0.631 0 1.231 0.063 1.512 0.761 0.056 0.114 0.106 0.229 0.166 0.341 0.131 0.25 0.19 0.665 0.565 0.55 0.416-0.127 1.043 0.047 1.164-0.639v-2e-3c0.593 0.152 1.125 0.517 1.765 0.511-0.063 0.108-0.106 0.237-0.195 0.319-0.223 0.207-0.555 0.354-0.366 0.751 0.19 0.412 0.518 0.643 0.975 0.683 0.25 0.021 0.51 0.01 0.748 0.076 0.422 0.118 0.865 0.253 1.008 0.748 0.189 0.649 0.621 0.844 1.248 0.706 0.41-0.134 0.799-0.181 1.178 0.128 0.182 0.149 0.443 0.113 0.672 0.066 0.736-0.153 1.346 0.063 1.769 0.673 0.284 0.412 0.563 0.433 0.926 0.145 0.64 0.017 1.244 0.14 1.754 0.561 0.229 0.188 0.506 0.178 0.774 0.189 0.24 0.297 0.591 0.291 0.916 0.312 0.359 0.023 0.646 0.149 0.847 0.451 0.83 0.324 1.655 0.654 2.489 0.97 0.109 0.042 0.22 0.083 0.32 0.136 0.049-0.13 0.094-0.261 0.123-0.399 0.066-0.308 0.234-0.554 0.596-0.508 0.359 0.046 0.515-0.098 0.615-0.435 0.094-0.306 0.354-0.43 0.691-0.412 0.309 0.016 0.486 0.126 0.588 0.429 0.057 0.164 0.193 0.314 0.381 0.535-0.537-0.671-0.725-1.406-1.027-2.078-0.205-0.46-0.762-0.494-0.887-0.969-0.123-0.467-0.047-1.015-0.459-1.374-0.441-0.384-0.213-0.803-0.107-1.219 0.029-0.117 0.152-0.13 0.257-0.151 0.021 3e-3 0.032 0.014 0.053 0.018 0.017-0.104-0.098-0.168-0.211-0.23v-0.655c0.646 0.533 1.256 0.965 1.772 1.486 0.394 0.394 0.894 0.622 1.291 0.992 0.354 0.327 0.134 0.398-0.174 0.451 4e-3 0.125 0.01 0.25 0.017 0.374-0.052 0.139-0.104 0.275-0.147 0.415-0.099 0.314-0.244 0.438-0.523 0.16-0.119-0.117-0.285-0.277-0.43-0.13-0.156 0.158 0.041 0.307 0.145 0.422 0.248 0.275 0.717 0.46 0.34 0.958-0.014 0.018 0.014 0.099 0.039 0.109 0.689 0.257 0.766 1.233 1.588 1.343 0.285 0.038 0.381 0.229 0.248 0.512-0.107 0.229-0.096 0.475 0.104 0.637 0.23 0.187 0.242-0.128 0.361-0.203 0.086-0.053 0.176-0.041 0.219 0.041 0.119 0.222 0.285 0.485 0.099 0.703-0.269 0.314-0.347 0.587-0.111 0.953 0.111 0.174 0.058 0.314-0.215 0.288-0.424-0.042-0.438 0.307-0.504 0.587-0.091 0.378 0.187 0.349 0.43 0.444 0.31 0.121 0.416 0.479 0.603 0.75 0.301 0.44 0.301 0.955 0.486 1.417 0.079 0.198 0.057 0.418-0.152 0.564-0.443 0.31-0.549 0.778-0.562 1.273-0.018 0.712-0.182 1.383 0.14 2.14 0.271 0.642 0.778 0.712 1.205 0.947 0.799 0.441 1.08 0.835 0.858 1.712-0.086 0.341-0.09 0.64 0.011 0.974 0.145 0.485 0.409 0.963 0.127 1.5-0.078 0.152 0.062 0.318 0.194 0.433 0.621 0.54 0.623 1.194 0.361 1.9z"/>
<path d="m54.378 106.37c-28.808 0-52.162-23.354-52.162-52.162-2e-7 -28.808 23.354-52.162 52.162-52.162 0.19145-2.6e-6 0.021 104.32 0 104.32z" fill="#fff" stroke-linecap="round" stroke-linejoin="round" stroke-opacity=".15714" stroke-width="27.683"/></svg>
